#!OML:ASF F:\VICON\USERDATA\INSTALL\rory3\rory3.ASF
:FULLY-SPECIFIED
:DEGREES
510
root -21.2631 17.8855 9.97305 -304.504 85.9457 57.7111
lowerback 10.9568 -0.776622 -6.07506
upperback 2.11643 -1.64939 0.0899191
thorax -3.74781 -0.720352 3.74424
lowerneck -11.643 -2.61044 -13.524
upperneck 42.4566 0.710308 4.32466
head 17.769 -0.630724 4.80793
rclavicle -6.07536e-015 -5.96354e-015
rhumerus -30.5826 -17.7712 -77.8999
rradius 31.3804
rwrist 6.36821
rhand -13.2939 7.22092
rfingers 7.12502
rthumb 12.8099 -22.3661
lclavicle -6.07536e-015 -5.96354e-015
lhumerus -28.7506 0.856903 85.4553
lradius 36.6558
lwrist -3.71815
lhand -17.3915 26.332
lfingers 7.12502
lthumb 8.85759 56.1261
rfemur -29.3305 -4.48553 13.8564
rtibia 40.7918
rfoot -5.26874 5.12085
rtoes -14.3239
lfemur 10.208 0.799364 -28.1798
ltibia 9.47264
lfoot -6.08341 -8.6485
ltoes -1.26956
511
root -21.3884 17.8897 9.9458 -307.684 85.9686 54.7109
lowerback 11.093 -0.72606 -5.87364
upperback 2.16968 -1.56504 0.0738122
thorax -3.78267 -0.679867 3.60519
lowerneck -11.6183 -2.62667 -13.6671
upperneck 42.4969 0.694654 4.42058
head 17.7903 -0.648314 4.87918
rclavicle 3.56818e-014 9.93923e-017
rhumerus -30.4876 -16.9033 -78.3475
rradius 31.7054
rwrist 6.05622
rhand -12.7777 7.38107
rfingers 7.12502
rthumb 13.3075 -22.174
lclavicle 3.56818e-014 9.93923e-017
lhumerus -28.8648 1.2036 85.2064
lradius 36.0629
lwrist -4.45039
lhand -17.3394 26.4354
lfingers 7.12502
lthumb 8.90786 56.2274
rfemur -29.498 -4.98527 14.0826
rtibia 43.0065
rfoot -5.40349 3.70227
rtoes -14.472
lfemur 9.73944 0.880307 -28.1895
ltibia 9.98674
lfoot -6.57421 -8.38606
ltoes -4.60283
512
root -21.5147 17.8975 9.91607 -308.536 85.9835 53.897
lowerback 11.146 -0.621511 -5.67788
upperback 2.18184 -1.40967 -0.0169437
thorax -3.823 -0.60385 3.37955
lowerneck -11.5797 -2.71411 -13.5412
upperneck 42.4667 0.52865 4.38645
head 17.7834 -0.697769 4.81028
rclavicle 2.98177e-015 2.18663e-015
rhumerus -30.4466 -16.5123 -78.6745
rradius 32.0554
rwrist 5.96603
rhand -12.4238 7.52908
rfingers 7.12502
rthumb 13.6486 -22.0034
lclavicle 2.98177e-015 2.18663e-015
lhumerus -29.0904 0.915236 85.1611
lradius 35.8075
lwrist -4.24618
lhand -17.7239 26.8853
lfingers 7.12502
lthumb 8.53674 56.6927
rfemur -29.7734 -5.60491 14.1871
rtibia 45.2758
rfoot -5.48793 2.4043
rtoes -13.0223
lfemur 9.00759 0.815001 -28.2887
ltibia 10.5768
lfoot -6.7363 -7.99485
ltoes -5.80023
513
root -21.6439 17.8957 9.88686 -306.63 85.9226 55.8944
lowerback 11.2848 -0.576474 -5.69148
upperback 2.18525 -1.36294 -0.115404
thorax -3.90292 -0.57762 3.28059
lowerneck -11.5942 -2.76827 -13.4861
upperneck 42.4965 0.449021 4.36038
head 17.8162 -0.72504 4.77757
rclavicle 9.90196e-015 1.39149e-015
rhumerus -30.3961 -15.9433 -78.9684
rradius 32.4406
rwrist 5.80646
rhand -12.2297 7.59605
rfingers 7.12502
rthumb 13.8356 -21.9238
lclavicle 9.90196e-015 1.39149e-015
lhumerus -29.3758 1.04214 84.9689
lradius 35.5217
lwrist -4.52139
lhand -17.695 26.435
lfingers 7.12502
lthumb 8.56469 56.2413
rfemur -30.0232 -6.32336 14.077
rtibia 47.7739
rfoot -5.53234 1.44658
rtoes -11.3281
lfemur 8.42712 1.69384 -28.4643
ltibia 10.8072
lfoot -7.19796 -8.24473
ltoes -12.2591
514
root -21.7717 17.9046 9.86409 -305.911 85.8947 56.7183
lowerback 11.3209 -0.603599 -5.85902
upperback 2.21047 -1.41673 -0.0575395
thorax -3.88502 -0.602876 3.44369
lowerneck -11.6038 -2.73218 -13.7853
upperneck 42.5545 0.562613 4.47623
head 17.8435 -0.713102 4.90999
rclavicle 4.06266e-015 -1.88845e-015
rhumerus -30.3032 -15.1497 -79.201
rradius 32.8709
rwrist 5.83654
rhand -12.2028 7.46593
rfingers 7.12502
rthumb 13.8616 -22.0521
lclavicle 4.06266e-015 -1.88845e-015
lhumerus -29.668 2.0297 84.6301
lradius 35.1031
lwrist -5.70713
lhand -17.3506 25.7956
lfingers 7.12502
lthumb 8.89704 55.588
rfemur -30.1353 -6.87874 14.0303
rtibia 50.2352
rfoot -5.22893 0.754716
rtoes -10.4062
lfemur 7.94864 1.28193 -28.6443
ltibia 11.1224
lfoot -6.8307 -8.00108
ltoes -10.4188
515
root -21.8943 17.9059 9.84309 -306.298 86.0623 56.4658
lowerback 11.2719 -0.646789 -5.83416
upperback 2.31699 -1.45684 0.0549509
thorax -3.73944 -0.628658 3.55053
lowerneck -11.6031 -2.72019 -13.9321
upperneck 42.4397 0.645575 4.38854
head 17.7699 -0.711527 4.89925
rclavicle 2.02263e-014 4.87022e-015
rhumerus -30.1113 -14.7108 -79.3941
rradius 33.1998
rwrist 6.11105
rhand -12.1712 7.47783
rfingers 7.12502
rthumb 13.892 -22.0382
lclavicle 2.02263e-014 4.87022e-015
lhumerus -29.9244 3.0382 84.4116
lradius 34.842
lwrist -6.45584
lhand -17.9637 25.753
lfingers 7.12502
lthumb 8.30541 55.5698
rfemur -30.1558 -7.46181 14.1812
rtibia 52.7003
rfoot -4.8796 0.17057
rtoes -8.97305
lfemur 7.47612 1.42628 -28.6175
ltibia 11.4498
lfoot -7.26788 -7.92366
ltoes -16.4284
516
root -22.0136 17.9206 9.81524 -304.73 86.1094 58.1867
lowerback 11.2812 -0.644071 -5.76797
upperback 2.40219 -1.44233 -0.00313342
thorax -3.65997 -0.625145 3.44919
lowerneck -11.5191 -2.72212 -13.676
upperneck 42.238 0.636731 4.1137
head 17.6295 -0.702322 4.70542
rclavicle 1.38031e-014 -4.96962e-015
rhumerus -29.9719 -14.5508 -79.582
rradius 33.4484
rwrist 6.40716
rhand -11.8455 7.67585
rfingers 7.12502
rthumb 14.2059 -21.8184
lclavicle 1.38031e-014 -4.96962e-015
lhumerus -30.186 3.52092 84.2007
lradius 34.606
lwrist -6.64091
lhand -18.2834 26.0675
lfingers 7.12502
lthumb 7.99685 55.8962
rfemur -30.0119 -8.17472 14.0873
rtibia 55.0452
rfoot -4.64046 -0.154918
rtoes -6.57467
lfemur 7.01014 0.566839 -28.7824
ltibia 11.8464
lfoot -6.36842 -7.99697
ltoes -9.40231
